<?xml version="1.0" encoding="UTF-8"?>
<svg id="Layer_2" xmlns="http://www.w3.org/2000/svg" viewBox="0 0 497 127.12">
  <g id="Layer_2-2" data-name="Layer_2">
    <path d="M497,51.86c-1,1-3,13-31,29,0,0,6-6,6-13,0,0-12,17-36,23,0,0,6-3,8-9s-6,7-27,12c0,0,4-5,3-7,0,0-2.63,4-11.81,7l4.81-5s-10,7-18,8c0,0,4-6.33,0-7.67,0,0-7,16.67-44,28.67,0,0,17-11,14-12,0,0-28,24-61,21,0,0,17-4.5,23-20.5,0,0-28,23.5-74,20.5,0,0,15-9,13-20,0,0-35,12-71,5,0,0,9-2,8-13,0,0-24,7-49,7,0,0,11-3,1-11,0,0-15,9-57,8,0,0,15-8,0-8,0,0-90-4-98-16V0h497s0,51.85,0,51.85Z"/>
  </g>
</svg>